<?xml version="1.0"?>

<svg fill="#FFFFFF" version="1.1" id="Layer_1" xmlns="http://www.w3.org/2000/svg" xmlns:xlink="http://www.w3.org/1999/xlink" x="0px" y="0px" viewBox="0 0 333.8 144.1" style="enable-background:new 0 0 333.8 144.1;" xml:space="preserve">

<g>
&#x9;<g>
&#x9;&#x9;<path class="st0" d="M97.7,19.8c0,11.4-6.2,16.3-14.8,18.1l18.4,27l-5.7,4.6L75.1,38.8c-0.5,0-1,0-1.6,0H61v29.8h-7.5V0.9h20&#xA;&#x9;&#x9;&#x9;C86.4,0.9,97.7,4.4,97.7,19.8z M61,32h12.5c9.2,0,16.6-2.7,16.6-12.2c0-9.6-7.5-12.2-16.6-12.2H61V32z"></path>
&#x9;&#x9;<path class="st0" d="M145.8,59.4v6.3c-3.8,2.3-7.9,4.4-14.8,4.4c-11.9,0-22-7.4-22-19.7c0-13.4,9.5-21.5,20-21.5&#xA;&#x9;&#x9;&#x9;c11.8,0,20.1,8,19.8,23.6H116c1,6.9,6.3,11.3,15,11.3C138.6,63.9,142.1,61.7,145.8,59.4z M116.1,46.5h25.3&#xA;&#x9;&#x9;&#x9;c0-4.6-4.1-11.3-12.5-11.3C122.7,35.3,117.3,38.9,116.1,46.5z"></path>
&#x9;&#x9;<path class="st0" d="M165.4,37.2c2.3-4.7,8-8.7,14.2-8.7c12.9,0,20.1,9.7,20.1,21.1c0,11.3-7.2,20.1-19.6,20.1&#xA;&#x9;&#x9;&#x9;c-6.1,0-12.4-3.9-14.8-8.6v26h-6.8V30.9l6.8-2.3V37.2z M192.8,49.1c0-8.4-5.8-14.4-13.6-14.4c-7.9,0-13.7,6-13.7,14.4&#xA;&#x9;&#x9;&#x9;c0,8.2,5.8,14.3,13.7,14.3C187,63.4,192.8,57.3,192.8,49.1z"></path>
&#x9;&#x9;<path class="st0" d="M207.3,49.5c0-11.4,9.6-20.6,20.9-20.6c11.3,0,20.9,9.3,20.9,20.6c0,11.3-9.6,20.5-20.9,20.5&#xA;&#x9;&#x9;&#x9;C217,70.1,207.3,60.8,207.3,49.5z M242.1,49.5c0-8-5.9-14.4-13.9-14.4c-8,0-14,6.3-14,14.4c0,7.9,6,14.3,14,14.3&#xA;&#x9;&#x9;&#x9;C236.3,63.8,242.1,57.5,242.1,49.5z"></path>
&#x9;&#x9;<path class="st0" d="M281.4,29.6v7.1c-6.1,0-15,2.8-15,9.6v22.3h-6.8V31.7l6.8-2.3v8.5C268.5,34.2,275.1,29.6,281.4,29.6z"></path>
&#x9;&#x9;<path class="st0" d="M294.9,34.9H287l2.3-6h5.6V16.4l6.8-2.3v14.8h9.3v6h-9.3v22.4c0,3.5,2.4,6.4,8,6.4v6.3&#xA;&#x9;&#x9;&#x9;c-13.1,0-14.8-8.3-14.8-12.8V34.9z"></path>
&#x9;&#x9;<path class="st0" d="M66.1,117.5l-7.2,8.2v16.9h-7.4V76.4l7.4-2.3v41.3l35.9-40.8l5,4.5L71,112l32.3,27l-5.7,4.6L66.1,117.5z"></path>
&#x9;&#x9;<path class="st0" d="M111.8,87.6l7.9-2.3v8.5l-7.9,2.3V87.6z M112.4,105.6l6.8-2.3v39.3h-6.8V105.6z"></path>
&#x9;&#x9;<path class="st0" d="M136.2,108.9h-7.9l2.3-6h5.6V90.5l6.8-2.3V103h9.3v6H143v22.4c0,3.5,2.4,6.4,8,6.4v6.3&#xA;&#x9;&#x9;&#x9;c-13.1,0-14.8-8.3-14.8-12.8V108.9z"></path>
&#x9;&#x9;<path class="st0" d="M191.7,134.2v6.7c-3.8,2.5-7.8,3.2-11,3.2c-11.3,0-20.9-9.3-20.9-20.5c0-11.3,9.6-20.6,20.9-20.6&#xA;&#x9;&#x9;&#x9;c3.2,0,7.2,0.9,11,3.2v6.9c0,0-3.6-3.9-11-3.9c-8,0-14.2,6.3-14.2,14.4c0,7.9,6.1,14.4,14.2,14.4&#xA;&#x9;&#x9;&#x9;C188.1,138,191.7,134.2,191.7,134.2z"></path>
&#x9;&#x9;<path class="st0" d="M222.7,103c9,0,15.2,7.1,15.2,15.1v24.5l-6.8-0.1v-23.5c0-5.7-4.2-10.2-11.2-10.2c-5.6,0-11.1,4.3-11.1,10.2&#xA;&#x9;&#x9;&#x9;v23.6h-6.8V73.5l6.8-2.3v39.2C211.1,106.7,216.3,103,222.7,103z"></path>
&#x9;&#x9;<path class="st0" d="M285.2,133.4v6.3c-3.8,2.3-7.9,4.4-14.8,4.4c-11.9,0-22-7.4-22-19.7c0-13.4,9.5-21.5,20-21.5&#xA;&#x9;&#x9;&#x9;c11.8,0,20.1,8,19.8,23.6h-32.7c1,6.9,6.3,11.3,15,11.3C277.9,138,281.4,135.7,285.2,133.4z M255.4,120.6h25.3&#xA;&#x9;&#x9;&#x9;c0-4.6-4.1-11.3-12.5-11.3C262,109.3,256.6,112.9,255.4,120.6z"></path>
&#x9;&#x9;<path class="st0" d="M318.6,103c9,0,15.2,7.1,15.2,15.1v24.5H327v-23.6c0-5.7-4.2-10.2-11.2-10.2c-5.6,0-11.1,4.3-11.1,10.2v23.6&#xA;&#x9;&#x9;&#x9;H298v-37l6.8-2.3v7C306.9,106.7,312.2,103,318.6,103z"></path>
&#x9;</g>
&#x9;<g>
&#x9;&#x9;<g>
&#x9;&#x9;&#x9;<path class="st0" d="M15.4,85.2c-3.2-0.1-5.7,2.5-5.8,5.6l-0.7,41.1c-0.1,3.2,2.5,5.7,5.6,5.8c3.2,0.1,5.7-2.5,5.8-5.6L21,91&#xA;&#x9;&#x9;&#x9;&#x9;C21.1,87.9,18.6,85.3,15.4,85.2z M14.6,135c-1.4,0-2.5-1.2-2.5-2.6c0-1.4,1.2-2.5,2.6-2.5c1.4,0,2.5,1.2,2.5,2.6&#xA;&#x9;&#x9;&#x9;&#x9;C17.1,133.9,16,135.1,14.6,135z"></path>
&#x9;&#x9;</g>
&#x9;&#x9;<g>
&#x9;&#x9;&#x9;<g>
&#x9;&#x9;&#x9;&#x9;<path class="st0" d="M15.7,72.4C15.7,72.4,15.7,72.4,15.7,72.4c-0.4,0-0.7-0.2-0.8-0.6C14.3,69.9-0.2,25.1,0,16.3&#xA;&#x9;&#x9;&#x9;&#x9;&#x9;C0.2,7.2,7.8-0.1,16.9,0c9.2,0.2,16.5,7.8,16.3,16.9l0,0C33.1,25.7,17.1,70,16.4,71.9C16.3,72.2,16,72.4,15.7,72.4z M16.6,1.6&#xA;&#x9;&#x9;&#x9;&#x9;&#x9;c-8.1,0-14.8,6.6-15,14.7C1.5,23.8,12.7,59.5,15.7,69c3.3-9.4,15.8-44.7,15.9-52.1c0.1-8.3-6.5-15.1-14.7-15.2&#xA;&#x9;&#x9;&#x9;&#x9;&#x9;C16.8,1.6,16.7,1.6,16.6,1.6z M32.4,16.9L32.4,16.9L32.4,16.9z"></path>
&#x9;&#x9;&#x9;</g>
&#x9;&#x9;&#x9;<g>
&#x9;&#x9;&#x9;&#x9;<path class="st0" d="M15.7,72.4C15.7,72.4,15.7,72.4,15.7,72.4c-0.4,0-0.7-0.3-0.8-0.7c-0.4-1.9-9.3-46.6-9.1-55.3&#xA;&#x9;&#x9;&#x9;&#x9;&#x9;C5.9,7.3,10.8,0,16.8,0c0,0,0.1,0,0.1,0c3,0.1,5.7,1.9,7.7,5.1c1.9,3.2,3,7.3,2.9,11.7c-0.2,8.7-10.6,53.1-11.1,54.9&#xA;&#x9;&#x9;&#x9;&#x9;&#x9;C16.4,72.1,16,72.4,15.7,72.4z M16.8,1.6c-5.1,0-9.3,6.6-9.4,14.8c-0.1,7.1,6.2,40,8.4,51.2c2.6-11.1,10-43.8,10.2-50.9&#xA;&#x9;&#x9;&#x9;&#x9;&#x9;C26,12.7,25,8.9,23.3,6c-1.7-2.8-4-4.3-6.4-4.4C16.9,1.6,16.8,1.6,16.8,1.6z"></path>
&#x9;&#x9;&#x9;</g>
&#x9;&#x9;&#x9;<g>
&#x9;&#x9;&#x9;&#x9;<path class="st0" d="M15.7,72.4C15.7,72.4,15.7,72.4,15.7,72.4c-0.4,0-0.8-0.3-0.8-0.8c-0.1-1.9-3.1-46.4-3-55.1&#xA;&#x9;&#x9;&#x9;&#x9;&#x9;c0.1-4.3,0.6-8.3,1.4-11.4C14.2,1.7,15.4,0,16.9,0c3.3,0.1,4.6,8.7,4.5,16.7l0,0c-0.2,8.7-4.7,53.1-4.9,54.9&#xA;&#x9;&#x9;&#x9;&#x9;&#x9;C16.4,72.1,16.1,72.4,15.7,72.4z M16.9,1.6c-0.3,0-1.2,0.7-2.1,4c-0.8,2.9-1.3,6.8-1.3,11c-0.1,6.1,1.4,31,2.3,45.1&#xA;&#x9;&#x9;&#x9;&#x9;&#x9;c1.4-14.1,3.8-38.9,3.9-45C19.9,7,18,1.7,16.9,1.6C16.9,1.6,16.9,1.6,16.9,1.6z M20.6,16.7L20.6,16.7L20.6,16.7z"></path>
&#x9;&#x9;&#x9;</g>
&#x9;&#x9;</g>
&#x9;&#x9;<g>
&#x9;&#x9;&#x9;
&#x9;&#x9;&#x9;&#x9;<rect x="7.6" y="73" transform="matrix(1.756055e-02 -0.9998 0.9998 1.756055e-02 -60.7012 90.2758)" class="st0" width="15.9" height="6.1"></rect>
&#x9;&#x9;</g>
&#x9;</g>
</g>
</svg>