<svg xmlns="http://www.w3.org/2000/svg" viewBox="0 23.25 21.399999618530273 15.5" data-asc="1.2" width="21.399999618530273" height="15.5"><defs/><g fill="#000000"><g transform="translate(0, 0)"><path d="M21.30 23.25L21.40 23.70Q18.60 25.50 18.60 28.85Q18.60 29.95 18.90 31.40Q19 31.95 19.08 32.50Q19.15 33.05 19.15 33.60Q19.15 36.15 17.80 37.45Q16.45 38.75 14.70 38.75Q12.70 38.75 11.60 37.27Q10.50 35.80 10.50 33.65Q10.50 32 11.22 30.15Q11.95 28.30 13.40 26.75Q15.20 24.85 17.33 24.05Q19.45 23.25 21.30 23.25M10.80 23.25L10.90 23.70Q8.10 25.50 8.10 28.85Q8.10 29.95 8.40 31.40Q8.50 31.95 8.58 32.50Q8.65 33.05 8.65 33.60Q8.65 36.15 7.30 37.45Q5.95 38.75 4.20 38.75Q2.20 38.75 1.10 37.27Q0 35.80 0 33.65Q0 32 0.72 30.15Q1.45 28.30 2.90 26.75Q4.70 24.85 6.82 24.05Q8.95 23.25 10.80 23.25Z"/></g></g></svg>