<svg xmlns="http://www.w3.org/2000/svg" viewBox="0 26.399999618530273 13.949999809265137 9.649999618530273" data-asc="1.15" width="13.949999809265137" height="9.649999618530273"><defs/><g fill="#000000"><g transform="translate(0, 0)"><path d="M3.20 36.05Q1.50 36.05 0.75 35.17Q0 34.30 0 32.45Q0 30.95 0.65 29.32Q1.30 27.70 2.40 26.40L4.75 26.95Q3.05 30.10 3.05 32.80L5.70 32.80L5.70 35.60Q4.50 36.05 3.20 36.05M11.55 36.05Q9.85 36.05 9.05 35.15Q8.25 34.25 8.25 32.45Q8.25 30.95 8.90 29.32Q9.55 27.70 10.65 26.40L13 26.95Q11.30 30.10 11.30 32.80L13.95 32.80L13.95 35.60Q12.75 36.05 11.55 36.05Z"/></g></g></svg>