<svg xmlns="http://www.w3.org/2000/svg" viewBox="0 12.300000190734863 15.100000381469727 13.999999046325684" data-asc="1.006" width="15.100000381469727" height="13.999999046325684"><defs/><g fill="#000000"><g transform="translate(0, 0)"><path d="M3.70 12.30L5.05 13.30Q4.50 14.00 3.90 15.30Q3.30 16.60 2.95 18.15Q2.60 19.70 2.75 21.25Q3.10 21.10 3.40 21.02Q3.70 20.95 4 20.95Q5 20.95 5.65 21.65Q6.30 22.35 6.30 23.40Q6.30 24.80 5.50 25.55Q4.70 26.30 3.55 26.30Q1.85 26.30 0.92 24.97Q0 23.65 0 21.75Q0 20.45 0.48 18.67Q0.95 16.90 1.77 15.15Q2.60 13.40 3.70 12.30M12.50 12.30L13.85 13.30Q13.30 14.00 12.70 15.30Q12.10 16.60 11.75 18.15Q11.40 19.70 11.55 21.25Q11.90 21.10 12.20 21.02Q12.50 20.95 12.80 20.95Q13.80 20.95 14.45 21.65Q15.10 22.35 15.10 23.40Q15.10 24.80 14.30 25.55Q13.50 26.30 12.35 26.30Q10.65 26.30 9.72 24.97Q8.80 23.65 8.80 21.75Q8.80 20.45 9.28 18.67Q9.75 16.90 10.57 15.15Q11.40 13.40 12.50 12.30Z"/></g></g></svg>